<?xml version="1.0" encoding="UTF-8"?>
<svg width="90px" height="46px" viewBox="0 0 90 46" version="1.1" xmlns="http://www.w3.org/2000/svg" xmlns:xlink="http://www.w3.org/1999/xlink">
    <g id="Web-v2" stroke="none" stroke-width="1" fill="none" fill-rule="evenodd">
        <g id="Home-v2-Copy" transform="translate(-50.000000, -31.000000)" fill="#000000">
            <g id="Group-3" transform="translate(50.000000, 31.000000)">
                <g id="SM-logo">
                    <path d="M11.1791366,14.1518625 C11.1791366,11.0945559 10.1195183,10.0859599 7.87918241,9.0773639 L7.06176255,8.73065903 C5.9113198,8.22636103 5.75994575,7.56446991 5.75994575,6.46131805 C5.75994575,5.23209169 6.33516713,3.40401146 7.75808317,3.40401146 C8.87825111,3.40401146 9.24154883,4.25501433 9.21127402,5.76790831 C9.21127402,5.95702006 9.33237325,6.05157593 9.51402211,6.02005731 L12.0378326,6.13467854 C12.1892066,6.0716413 12.3405807,5.97708542 12.3405807,5.78797367 C12.5222295,2.25788771 11.118587,0 8.06083126,0 C3.79208314,0 2.0361442,3.84527221 2.0361442,7.43839542 C2.0361442,9.92836676 2.70219001,11.1891117 5.09389995,12.2292264 L5.9113198,12.5759312 C7.15258698,13.1117479 7.39478546,13.773639 7.39478546,15.0659026 C7.39478546,16.4212034 6.78928927,18.5959885 5.09389995,18.5959885 C3.79208314,18.5959885 3.19758824,17.4813834 3.31868748,16.2206384 C3.34896229,16.0315267 3.22786305,15.9054522 3.04621419,15.9369708 L0.310480069,15.8853868 C0.128831213,15.9169054 0.0682815945,16.0429799 0.0380067852,16.2320917 C-0.295016118,19.6361032 1.58202206,22 4.82142666,22 C9.12044959,22 11.1791366,17.9025788 11.1791366,14.1518625 Z M17.9212396,21.6679353 L14.7942085,21.6679353 C14.6172067,21.6679353 14.4992055,21.5450861 14.5287058,21.3608124 L17.3902343,4.40762893 C17.4197346,4.28477978 17.360734,4.2233552 17.2427329,4.2233552 L14.2337029,4.2233552 C14.0567011,4.2233552 13.9682002,4.10050604 13.9977005,3.91623231 L14.4992055,1.09070173 C14.5287058,0.906427997 14.646707,0.783578841 14.8237088,0.783578841 L24.9128093,0.783578841 C25.0898111,0.783578841 25.2078122,0.906427997 25.1783119,1.09070173 L24.6768069,3.91623231 C24.6473066,4.10050604 24.4998052,4.2233552 24.3228034,4.2233552 L21.3137734,4.2233552 C21.1957723,4.2233552 21.1367717,4.28477978 21.1072714,4.40762893 L18.2457429,21.3608124 C18.2162426,21.5450861 18.0982414,21.6679353 17.9212396,21.6679353 Z M21.3531072,21.3608124 L28.9936833,1.09070173 C29.0526839,0.906427997 29.170685,0.783578841 29.3476868,0.783578841 L32.6517197,0.783578841 C32.8287215,0.783578841 32.9467227,0.906427997 32.9467227,1.09070173 L33.6252294,21.3608124 C33.6252294,21.5450861 33.5367286,21.6679353 33.3597268,21.6679353 L30.2621959,21.6679353 C30.0556939,21.6679353 29.967193,21.5450861 29.967193,21.3608124 L29.9376927,17.491064 L26.3091565,17.491064 L24.9816433,21.3608124 C24.9226427,21.5450861 24.8341418,21.6679353 24.6276398,21.6679353 L21.5596092,21.6679353 C21.3826075,21.6679353 21.2941066,21.5450861 21.3531072,21.3608124 Z M27.3416668,14.511972 L29.967193,14.511972 L29.9966933,7.07959807 L29.9081924,7.07959807 L27.3416668,14.511972 Z M40.5905766,21.6679353 L37.4635455,21.6679353 C37.2865437,21.6679353 37.1685425,21.5450861 37.1980428,21.3608124 L40.0595713,4.40762893 C40.0890716,4.28477978 40.030071,4.2233552 39.9120699,4.2233552 L36.9030399,4.2233552 C36.7260381,4.2233552 36.6375372,4.10050604 36.6670375,3.91623231 L37.1685425,1.09070173 C37.1980428,0.906427997 37.316044,0.783578841 37.4930457,0.783578841 L47.5821463,0.783578841 C47.759148,0.783578841 47.8771492,0.906427997 47.8476489,1.09070173 L47.3461439,3.91623231 C47.3166436,4.10050604 47.1691422,4.2233552 46.9921404,4.2233552 L43.9831104,4.2233552 C43.8651092,4.2233552 43.8061087,4.28477978 43.7766084,4.40762893 L40.9150798,21.3608124 C40.8855796,21.5450861 40.7675784,21.6679353 40.5905766,21.6679353 Z M46.5463582,21.3608124 L49.938892,1.09070173 C49.9683923,0.906427997 50.0863934,0.783578841 50.2633952,0.783578841 L58.7299796,0.783578841 C58.9069813,0.783578841 59.0249825,0.906427997 58.9954822,1.09070173 L58.4939772,3.91623231 C58.4644769,4.10050604 58.3169755,4.2233552 58.1399737,4.2233552 L53.3019255,4.2233552 C53.2134246,4.2233552 53.1249237,4.28477978 53.1249237,4.40762893 L52.3284158,9.22945829 C52.2989155,9.35230745 52.3579161,9.41373203 52.446417,9.41373203 L56.6059584,9.41373203 C56.7829602,9.41373203 56.8714611,9.53658118 56.8419608,9.72085491 L56.3699561,12.5156732 C56.3404558,12.6999469 56.1929543,12.8227961 56.0454528,12.8227961 L51.8859114,12.8227961 C51.7679102,12.8227961 51.7089096,12.8842207 51.6794093,13.0070698 L50.8239008,18.0438852 C50.7944005,18.1667344 50.8534011,18.2281589 50.941902,18.2281589 L55.7799502,18.2281589 C55.9569519,18.2281589 56.0454528,18.3510081 56.0159525,18.5352818 L55.5439478,21.3608124 C55.5144475,21.5450861 55.3964464,21.6679353 55.2194446,21.6679353 L46.7823605,21.6679353 C46.6348591,21.6679353 46.5168579,21.5450861 46.5463582,21.3608124 Z" id="STATE"></path>
                    <path d="M0.00460376894,45.4011461 L3.46650604,24.5988539 C3.49635003,24.4097421 3.61572597,24.2836676 3.79478988,24.2836676 L6.83887636,24.2836676 C7.10747223,24.2836676 7.25669216,24.3782235 7.28653614,24.5988539 L8.27138765,36.0401146 L8.39076359,36.0401146 L13.2254892,24.5988539 C13.3150211,24.3782235 13.4642411,24.2836676 13.7328369,24.2836676 L16.8366114,24.2836676 C17.0156753,24.2836676 17.1350512,24.4097421 17.1052072,24.5988539 L13.613461,45.4011461 C13.583617,45.5902579 13.4642411,45.7163324 13.2851772,45.7163324 L10.5395305,45.7163324 C10.3604666,45.7163324 10.2410907,45.5902579 10.2709347,45.4011461 L12.3600136,32.9197708 L12.2107937,32.9197708 L8.59967149,41.5873926 C8.51013953,41.7765043 8.39076359,41.9025788 8.1818557,41.9025788 L6.60012448,41.9025788 C6.39121659,41.9025788 6.30168463,41.7765043 6.30168463,41.5873926 L5.555585,32.9197708 L5.40636508,32.9197708 L3.28744213,45.4011461 C3.25759815,45.5902579 3.13822221,45.7163324 2.98900228,45.7163324 L0.24335565,45.7163324 C0.0941357243,45.7163324 -0.0252402162,45.5902579 0.00460376894,45.4011461 Z M16.0258498,45.4011461 L23.7554419,24.5988539 C23.8151299,24.4097421 23.9345058,24.2836676 24.1135698,24.2836676 L27.4560961,24.2836676 C27.63516,24.2836676 27.7545359,24.4097421 27.7545359,24.5988539 L28.4409476,45.4011461 C28.4409476,45.5902579 28.3514156,45.7163324 28.1723517,45.7163324 L25.0387333,45.7163324 C24.8298254,45.7163324 24.7402934,45.5902579 24.7402934,45.4011461 L24.7104495,41.4297994 L21.0396393,41.4297994 L19.69666,45.4011461 C19.636972,45.5902579 19.54744,45.7163324 19.3385321,45.7163324 L16.2347577,45.7163324 C16.0556938,45.7163324 15.9661618,45.5902579 16.0258498,45.4011461 Z M22.0841788,38.3724928 L24.7402934,38.3724928 L24.7701374,30.7449857 L24.6806055,30.7449857 L22.0841788,38.3724928 Z M34.6070465,45.7163324 C34.7861104,45.7163324 34.9054864,45.5902579 34.9353304,45.4011461 L37.8301969,28.0028653 C37.8600409,27.8767908 37.9197289,27.8137536 38.0391048,27.8137536 L41.0831913,27.8137536 C41.2622552,27.8137536 41.4114751,27.6876791 41.4413191,27.4985673 L41.9486669,24.5988539 C41.9785109,24.4097421 41.8591349,24.2836676 41.680071,24.2836676 L31.4734281,24.2836676 C31.2943642,24.2836676 31.1749882,24.4097421 31.1451443,24.5988539 L30.6377965,27.4985673 C30.6079525,27.6876791 30.6974845,27.8137536 30.8765484,27.8137536 L33.9206349,27.8137536 C34.0400108,27.8137536 34.0996988,27.8767908 34.0698548,28.0028653 L31.1749882,45.4011461 C31.1451443,45.5902579 31.2645202,45.7163324 31.4435841,45.7163324 L34.6070465,45.7163324 Z M47.2841082,45.7163324 L44.1206458,45.7163324 C43.9415819,45.7163324 43.8222059,45.5902579 43.8520499,45.4011461 L46.7469165,28.0028653 C46.7767605,27.8767908 46.7170725,27.8137536 46.5976966,27.8137536 L43.5536101,27.8137536 C43.3745462,27.8137536 43.2850142,27.6876791 43.3148582,27.4985673 L43.8222059,24.5988539 C43.8520499,24.4097421 43.9714259,24.2836676 44.1504898,24.2836676 L54.3571327,24.2836676 C54.5361966,24.2836676 54.6555725,24.4097421 54.6257286,24.5988539 L54.1183808,27.4985673 C54.0885368,27.6876791 53.9393169,27.8137536 53.760253,27.8137536 L50.7161665,27.8137536 C50.5967906,27.8137536 50.5371026,27.8767908 50.5072586,28.0028653 L47.6123921,45.4011461 C47.5825481,45.5902579 47.4631721,45.7163324 47.2841082,45.7163324 Z M53.3092772,45.4011461 L56.7413355,24.5988539 C56.7711795,24.4097421 56.8905554,24.2836676 57.0696193,24.2836676 L65.6348431,24.2836676 C65.813907,24.2836676 65.9332829,24.4097421 65.9034389,24.5988539 L65.3960912,27.4985673 C65.3662472,27.6876791 65.2170273,27.8137536 65.0379634,27.8137536 L60.1435498,27.8137536 C60.0540179,27.8137536 59.9644859,27.8767908 59.9644859,28.0028653 L59.1586983,32.9512894 C59.1288543,33.0773639 59.1885423,33.1404011 59.2780742,33.1404011 L63.4860761,33.1404011 C63.6651401,33.1404011 63.754672,33.2664756 63.724828,33.4555874 L63.2473243,36.3237822 C63.2174803,36.512894 63.0682604,36.6389685 62.9190404,36.6389685 L58.7110385,36.6389685 C58.5916626,36.6389685 58.5319746,36.7020057 58.5021306,36.8280802 L57.6366551,41.9971347 C57.6068111,42.1232092 57.666499,42.1862464 57.756031,42.1862464 L62.6504446,42.1862464 C62.8295085,42.1862464 62.9190404,42.3123209 62.8891964,42.5014327 L62.4116927,45.4011461 C62.3818487,45.5902579 62.2624728,45.7163324 62.0834088,45.7163324 L53.5480291,45.7163324 C53.3988092,45.7163324 53.2794332,45.5902579 53.3092772,45.4011461 Z M77.751501,29.1375358 C77.751501,32.4154728 76.6472736,35.0630372 74.5581946,36.3553009 L75.6027341,45.4011461 C75.6325781,45.5587393 75.5728901,45.7163324 75.4236702,45.7163324 L72.1706758,45.7163324 C71.9916119,45.7163324 71.872236,45.6532951 71.842392,45.4641834 L71.1261363,37.2063037 L69.842845,37.2063037 C69.723469,37.2063037 69.6339371,37.269341 69.6339371,37.3954155 L68.2611138,45.4011461 C68.2312698,45.5902579 68.1118938,45.7163324 67.9328299,45.7163324 L64.7693675,45.7163324 C64.6201476,45.7163324 64.5007716,45.5902579 64.5306156,45.4011461 L67.9925179,24.5988539 C68.0223619,24.4097421 68.1417378,24.2836676 68.3208017,24.2836676 L72.7377115,24.2836676 C75.811642,24.2836676 77.751501,25.512894 77.751501,29.1375358 Z M73.9613149,29.6418338 C73.9613149,28.286533 73.3644352,27.7191977 72.2303638,27.7191977 L71.3947322,27.7191977 C71.2753563,27.7191977 71.2156683,27.782235 71.1858243,27.9083095 L70.2308168,33.7077364 C70.2308168,33.8338109 70.2606608,33.8968481 70.3800367,33.8968481 L71.5439521,33.8968481 C73.3047473,33.8968481 73.9613149,31.6905444 73.9613149,29.6418338 Z M88.4654917,38.1518625 C88.4654917,41.9025788 86.4361007,46 82.1982548,46 C79.0049484,46 77.1546213,43.6361032 77.4829052,40.2320917 C77.5127492,40.0429799 77.5724371,39.9169054 77.751501,39.8853868 L80.8254315,39.5386819 C81.0044954,39.5071633 81.1238714,39.6332378 81.0940274,39.8223496 C80.9746514,41.0830946 81.1835593,42.5959885 82.4668507,42.5959885 C84.1381139,42.5959885 84.7349936,40.4212034 84.7349936,39.0659026 C84.7349936,37.773639 84.4962417,37.1117479 83.2726383,36.5759312 L82.4668507,36.2292264 C80.1091759,35.1891117 79.4526082,33.9283668 79.4526082,31.4383954 C79.4526082,27.8452722 81.1835593,24 85.3915612,24 C88.4058037,24 90.1665989,25.8595989 89.9875349,29.3896848 C89.9875349,29.5787966 89.838315,29.6733524 89.6890951,29.7363897 L86.8240725,30.0200573 C86.6450086,30.0515759 86.5256327,29.9570201 86.5256327,29.7679083 C86.5554767,28.2550143 86.1973488,27.4040115 85.0931214,27.4040115 C83.6904541,27.4040115 83.1234184,29.2320917 83.1234184,30.4613181 C83.1234184,31.5644699 83.2726383,32.226361 84.4067097,32.730659 L85.2124973,33.0773639 C87.4209522,34.0859599 88.4654917,35.0945559 88.4654917,38.1518625 Z" id="MATTERS"></path>
                </g>
            </g>
        </g>
    </g>
</svg>