<svg xmlns="http://www.w3.org/2000/svg" width="90" height="46" viewBox="0 0 90 46">
  <g>
    <path d="M11.1791366 14.1518625C11.1791366 11.0945559 10.1195183 10.0859599 7.87918241 9.0773639L7.06176255 8.73065903C5.9113198 8.22636103 5.75994575 7.56446991 5.75994575 6.46131805 5.75994575 5.23209169 6.33516713 3.40401146 7.75808317 3.40401146 8.87825111 3.40401146 9.24154883 4.25501433 9.21127402 5.76790831 9.21127402 5.95702006 9.33237325 6.05157593 9.51402211 6.02005731L12.0378326 6.13467854C12.1892066 6.0716413 12.3405807 5.97708542 12.3405807 5.78797367 12.5222295 2.25788771 11.118587 0 8.06083126 0 3.79208314 0 2.0361442 3.84527221 2.0361442 7.43839542 2.0361442 9.92836676 2.70219001 11.1891117 5.09389995 12.2292264L5.9113198 12.5759312C7.15258698 13.1117479 7.39478546 13.773639 7.39478546 15.0659026 7.39478546 16.4212034 6.78928927 18.5959885 5.09389995 18.5959885 3.79208314 18.5959885 3.19758824 17.4813834 3.31868748 16.2206384 3.34896229 16.0315267 3.22786305 15.9054522 3.04621419 15.9369708L.310480069 15.8853868C.128831213 15.9169054.0682815946 16.0429799.0380067853 16.2320917-.295016118 19.6361032 1.58202206 22 4.82142666 22 9.12044959 22 11.1791366 17.9025788 11.1791366 14.1518625zM17.9212396 21.6679353L14.7942085 21.6679353C14.6172067 21.6679353 14.4992055 21.5450861 14.5287058 21.3608124L17.3902343 4.40762893C17.4197346 4.28477978 17.360734 4.2233552 17.2427329 4.2233552L14.2337029 4.2233552C14.0567011 4.2233552 13.9682002 4.10050604 13.9977005 3.91623231L14.4992055 1.09070173C14.5287058.906427997 14.646707.783578841 14.8237088.783578841L24.9128093.783578841C25.0898111.783578841 25.2078122.906427997 25.1783119 1.09070173L24.6768069 3.91623231C24.6473066 4.10050604 24.4998052 4.2233552 24.3228034 4.2233552L21.3137734 4.2233552C21.1957723 4.2233552 21.1367717 4.28477978 21.1072714 4.40762893L18.2457429 21.3608124C18.2162426 21.5450861 18.0982414 21.6679353 17.9212396 21.6679353zM21.3531072 21.3608124L28.9936833 1.09070173C29.0526839.906427997 29.170685.783578841 29.3476868.783578841L32.6517197.783578841C32.8287215.783578841 32.9467227.906427997 32.9467227 1.09070173L33.6252294 21.3608124C33.6252294 21.5450861 33.5367286 21.6679353 33.3597268 21.6679353L30.2621959 21.6679353C30.0556939 21.6679353 29.967193 21.5450861 29.967193 21.3608124L29.9376927 17.491064 26.3091565 17.491064 24.9816433 21.3608124C24.9226427 21.5450861 24.8341418 21.6679353 24.6276398 21.6679353L21.5596092 21.6679353C21.3826075 21.6679353 21.2941066 21.5450861 21.3531072 21.3608124zM27.3416668 14.511972L29.967193 14.511972 29.9966933 7.07959807 29.9081924 7.07959807 27.3416668 14.511972zM40.5905766 21.6679353L37.4635455 21.6679353C37.2865437 21.6679353 37.1685425 21.5450861 37.1980428 21.3608124L40.0595713 4.40762893C40.0890716 4.28477978 40.030071 4.2233552 39.9120699 4.2233552L36.9030399 4.2233552C36.7260381 4.2233552 36.6375372 4.10050604 36.6670375 3.91623231L37.1685425 1.09070173C37.1980428.906427997 37.316044.783578841 37.4930457.783578841L47.5821463.783578841C47.759148.783578841 47.8771492.906427997 47.8476489 1.09070173L47.3461439 3.91623231C47.3166436 4.10050604 47.1691422 4.2233552 46.9921404 4.2233552L43.9831104 4.2233552C43.8651092 4.2233552 43.8061087 4.28477978 43.7766084 4.40762893L40.9150798 21.3608124C40.8855796 21.5450861 40.7675784 21.6679353 40.5905766 21.6679353zM46.5463582 21.3608124L49.938892 1.09070173C49.9683923.906427997 50.0863934.783578841 50.2633952.783578841L58.7299796.783578841C58.9069813.783578841 59.0249825.906427997 58.9954822 1.09070173L58.4939772 3.91623231C58.4644769 4.10050604 58.3169755 4.2233552 58.1399737 4.2233552L53.3019255 4.2233552C53.2134246 4.2233552 53.1249237 4.28477978 53.1249237 4.40762893L52.3284158 9.22945829C52.2989155 9.35230745 52.3579161 9.41373203 52.446417 9.41373203L56.6059584 9.41373203C56.7829602 9.41373203 56.8714611 9.53658118 56.8419608 9.72085491L56.3699561 12.5156732C56.3404558 12.6999469 56.1929543 12.8227961 56.0454528 12.8227961L51.8859114 12.8227961C51.7679102 12.8227961 51.7089096 12.8842207 51.6794093 13.0070698L50.8239008 18.0438852C50.7944005 18.1667344 50.8534011 18.2281589 50.941902 18.2281589L55.7799502 18.2281589C55.9569519 18.2281589 56.0454528 18.3510081 56.0159525 18.5352818L55.5439478 21.3608124C55.5144475 21.5450861 55.3964464 21.6679353 55.2194446 21.6679353L46.7823605 21.6679353C46.6348591 21.6679353 46.5168579 21.5450861 46.5463582 21.3608124zM.00460376905 45.4011461L3.46650604 24.5988539C3.49635003 24.4097421 3.61572597 24.2836676 3.79478988 24.2836676L6.83887636 24.2836676C7.10747223 24.2836676 7.25669216 24.3782235 7.28653614 24.5988539L8.27138765 36.0401146 8.39076359 36.0401146 13.2254892 24.5988539C13.3150211 24.3782235 13.4642411 24.2836676 13.7328369 24.2836676L16.8366114 24.2836676C17.0156753 24.2836676 17.1350512 24.4097421 17.1052072 24.5988539L13.613461 45.4011461C13.583617 45.5902579 13.4642411 45.7163324 13.2851772 45.7163324L10.5395305 45.7163324C10.3604666 45.7163324 10.2410907 45.5902579 10.2709347 45.4011461L12.3600136 32.9197708 12.2107937 32.9197708 8.59967149 41.5873926C8.51013953 41.7765043 8.39076359 41.9025788 8.1818557 41.9025788L6.60012448 41.9025788C6.39121659 41.9025788 6.30168463 41.7765043 6.30168463 41.5873926L5.555585 32.9197708 5.40636508 32.9197708 3.28744213 45.4011461C3.25759815 45.5902579 3.13822221 45.7163324 2.98900228 45.7163324L.24335565 45.7163324C.0941357244 45.7163324-.0252402161 45.5902579.00460376905 45.4011461zM16.0258498 45.4011461L23.7554419 24.5988539C23.8151299 24.4097421 23.9345058 24.2836676 24.1135698 24.2836676L27.4560961 24.2836676C27.63516 24.2836676 27.7545359 24.4097421 27.7545359 24.5988539L28.4409476 45.4011461C28.4409476 45.5902579 28.3514156 45.7163324 28.1723517 45.7163324L25.0387333 45.7163324C24.8298254 45.7163324 24.7402934 45.5902579 24.7402934 45.4011461L24.7104495 41.4297994 21.0396393 41.4297994 19.69666 45.4011461C19.636972 45.5902579 19.54744 45.7163324 19.3385321 45.7163324L16.2347577 45.7163324C16.0556938 45.7163324 15.9661618 45.5902579 16.0258498 45.4011461zM22.0841788 38.3724928L24.7402934 38.3724928 24.7701374 30.7449857 24.6806055 30.7449857 22.0841788 38.3724928zM34.6070465 45.7163324C34.7861104 45.7163324 34.9054864 45.5902579 34.9353304 45.4011461L37.8301969 28.0028653C37.8600409 27.8767908 37.9197289 27.8137536 38.0391048 27.8137536L41.0831913 27.8137536C41.2622552 27.8137536 41.4114751 27.6876791 41.4413191 27.4985673L41.9486669 24.5988539C41.9785109 24.4097421 41.8591349 24.2836676 41.680071 24.2836676L31.4734281 24.2836676C31.2943642 24.2836676 31.1749882 24.4097421 31.1451443 24.5988539L30.6377965 27.4985673C30.6079525 27.6876791 30.6974845 27.8137536 30.8765484 27.8137536L33.9206349 27.8137536C34.0400108 27.8137536 34.0996988 27.8767908 34.0698548 28.0028653L31.1749882 45.4011461C31.1451443 45.5902579 31.2645202 45.7163324 31.4435841 45.7163324L34.6070465 45.7163324zM47.2841082 45.7163324L44.1206458 45.7163324C43.9415819 45.7163324 43.8222059 45.5902579 43.8520499 45.4011461L46.7469165 28.0028653C46.7767605 27.8767908 46.7170725 27.8137536 46.5976966 27.8137536L43.5536101 27.8137536C43.3745462 27.8137536 43.2850142 27.6876791 43.3148582 27.4985673L43.8222059 24.5988539C43.8520499 24.4097421 43.9714259 24.2836676 44.1504898 24.2836676L54.3571327 24.2836676C54.5361966 24.2836676 54.6555725 24.4097421 54.6257286 24.5988539L54.1183808 27.4985673C54.0885368 27.6876791 53.9393169 27.8137536 53.760253 27.8137536L50.7161665 27.8137536C50.5967906 27.8137536 50.5371026 27.8767908 50.5072586 28.0028653L47.6123921 45.4011461C47.5825481 45.5902579 47.4631721 45.7163324 47.2841082 45.7163324zM53.3092772 45.4011461L56.7413355 24.5988539C56.7711795 24.4097421 56.8905554 24.2836676 57.0696193 24.2836676L65.6348431 24.2836676C65.813907 24.2836676 65.9332829 24.4097421 65.9034389 24.5988539L65.3960912 27.4985673C65.3662472 27.6876791 65.2170273 27.8137536 65.0379634 27.8137536L60.1435498 27.8137536C60.0540179 27.8137536 59.9644859 27.8767908 59.9644859 28.0028653L59.1586983 32.9512894C59.1288543 33.0773639 59.1885423 33.1404011 59.2780742 33.1404011L63.4860761 33.1404011C63.6651401 33.1404011 63.754672 33.2664756 63.724828 33.4555874L63.2473243 36.3237822C63.2174803 36.512894 63.0682604 36.6389685 62.9190404 36.6389685L58.7110385 36.6389685C58.5916626 36.6389685 58.5319746 36.7020057 58.5021306 36.8280802L57.6366551 41.9971347C57.6068111 42.1232092 57.666499 42.1862464 57.756031 42.1862464L62.6504446 42.1862464C62.8295085 42.1862464 62.9190404 42.3123209 62.8891964 42.5014327L62.4116927 45.4011461C62.3818487 45.5902579 62.2624728 45.7163324 62.0834088 45.7163324L53.5480291 45.7163324C53.3988092 45.7163324 53.2794332 45.5902579 53.3092772 45.4011461zM77.751501 29.1375358C77.751501 32.4154728 76.6472736 35.0630372 74.5581946 36.3553009L75.6027341 45.4011461C75.6325781 45.5587393 75.5728901 45.7163324 75.4236702 45.7163324L72.1706758 45.7163324C71.9916119 45.7163324 71.872236 45.6532951 71.842392 45.4641834L71.1261363 37.2063037 69.842845 37.2063037C69.723469 37.2063037 69.6339371 37.269341 69.6339371 37.3954155L68.2611138 45.4011461C68.2312698 45.5902579 68.1118938 45.7163324 67.9328299 45.7163324L64.7693675 45.7163324C64.6201476 45.7163324 64.5007716 45.5902579 64.5306156 45.4011461L67.9925179 24.5988539C68.0223619 24.4097421 68.1417378 24.2836676 68.3208017 24.2836676L72.7377115 24.2836676C75.811642 24.2836676 77.751501 25.512894 77.751501 29.1375358zM73.9613149 29.6418338C73.9613149 28.286533 73.3644352 27.7191977 72.2303638 27.7191977L71.3947322 27.7191977C71.2753563 27.7191977 71.2156683 27.782235 71.1858243 27.9083095L70.2308168 33.7077364C70.2308168 33.8338109 70.2606608 33.8968481 70.3800367 33.8968481L71.5439521 33.8968481C73.3047473 33.8968481 73.9613149 31.6905444 73.9613149 29.6418338zM88.4654917 38.1518625C88.4654917 41.9025788 86.4361007 46 82.1982548 46 79.0049484 46 77.1546213 43.6361032 77.4829052 40.2320917 77.5127492 40.0429799 77.5724371 39.9169054 77.751501 39.8853868L80.8254315 39.5386819C81.0044954 39.5071633 81.1238714 39.6332378 81.0940274 39.8223496 80.9746514 41.0830946 81.1835593 42.5959885 82.4668507 42.5959885 84.1381139 42.5959885 84.7349936 40.4212034 84.7349936 39.0659026 84.7349936 37.773639 84.4962417 37.1117479 83.2726383 36.5759312L82.4668507 36.2292264C80.1091759 35.1891117 79.4526082 33.9283668 79.4526082 31.4383954 79.4526082 27.8452722 81.1835593 24 85.3915612 24 88.4058037 24 90.1665989 25.8595989 89.9875349 29.3896848 89.9875349 29.5787966 89.838315 29.6733524 89.6890951 29.7363897L86.8240725 30.0200573C86.6450086 30.0515759 86.5256327 29.9570201 86.5256327 29.7679083 86.5554767 28.2550143 86.1973488 27.4040115 85.0931214 27.4040115 83.6904541 27.4040115 83.1234184 29.2320917 83.1234184 30.4613181 83.1234184 31.5644699 83.2726383 32.226361 84.4067097 32.730659L85.2124973 33.0773639C87.4209522 34.0859599 88.4654917 35.0945559 88.4654917 38.1518625z"/>
  </g>
</svg>
